<svg width="781" height="495" viewBox="0 0 781 495" fill="none" xmlns="http://www.w3.org/2000/svg">
<rect x="159.242" y="444" width="35.4247" height="35.4247" transform="rotate(45 159.242 444)" fill="#703A31" fill-opacity="0.38"/>
<rect x="159.242" width="35.4247" height="35.4247" transform="rotate(45 159.242 0)" fill="#703A31" fill-opacity="0.38"/>
<rect x="491.145" y="444" width="35.4247" height="35.4247" transform="rotate(45 491.145 444)" fill="#703A31" fill-opacity="0.38"/>
<rect x="491.145" width="35.4247" height="35.4247" transform="rotate(45 491.145 0)" fill="#703A31" fill-opacity="0.38"/>
<rect x="25.0488" y="444" width="35.4247" height="35.4247" transform="rotate(45 25.0488 444)" fill="#703A31" fill-opacity="0.38"/>
<rect x="25.0488" width="35.4247" height="35.4247" transform="rotate(45 25.0488 0)" fill="#703A31" fill-opacity="0.38"/>
<rect x="356.952" y="444" width="35.4247" height="35.4247" transform="rotate(45 356.952 444)" fill="#703A31" fill-opacity="0.38"/>
<rect x="356.952" width="35.4247" height="35.4247" transform="rotate(45 356.952 0)" fill="#703A31" fill-opacity="0.38"/>
<rect x="226.338" y="444" width="35.4247" height="35.4247" transform="rotate(45 226.338 444)" fill="#703A31" fill-opacity="0.38"/>
<rect x="226.338" width="35.4247" height="35.4247" transform="rotate(45 226.338 0)" fill="#703A31" fill-opacity="0.38"/>
<rect x="558.24" y="444" width="35.4247" height="35.4247" transform="rotate(45 558.24 444)" fill="#703A31" fill-opacity="0.38"/>
<rect x="558.24" width="35.4247" height="35.4247" transform="rotate(45 558.24 0)" fill="#703A31" fill-opacity="0.38"/>
<rect x="688.854" y="444" width="35.4247" height="35.4247" transform="rotate(45 688.854 444)" fill="#703A31" fill-opacity="0.38"/>
<rect x="688.854" width="35.4247" height="35.4247" transform="rotate(45 688.854 0)" fill="#703A31" fill-opacity="0.38"/>
<rect x="92.1455" y="444" width="35.4247" height="35.4247" transform="rotate(45 92.1455 444)" fill="#703A31" fill-opacity="0.38"/>
<rect x="92.1455" width="35.4247" height="35.4247" transform="rotate(45 92.1455 0)" fill="#703A31" fill-opacity="0.38"/>
<rect x="424.048" y="444" width="35.4247" height="35.4247" transform="rotate(45 424.048 444)" fill="#703A31" fill-opacity="0.38"/>
<rect x="424.048" width="35.4247" height="35.4247" transform="rotate(45 424.048 0)" fill="#703A31" fill-opacity="0.38"/>
<rect x="293.435" y="444" width="35.4247" height="35.4247" transform="rotate(45 293.435 444)" fill="#703A31" fill-opacity="0.38"/>
<rect x="293.435" width="35.4247" height="35.4247" transform="rotate(45 293.435 0)" fill="#703A31" fill-opacity="0.38"/>
<rect x="625.337" y="444" width="35.4247" height="35.4247" transform="rotate(45 625.337 444)" fill="#703A31" fill-opacity="0.38"/>
<rect x="625.337" width="35.4247" height="35.4247" transform="rotate(45 625.337 0)" fill="#703A31" fill-opacity="0.38"/>
<rect x="755.951" y="444" width="35.4247" height="35.4247" transform="rotate(45 755.951 444)" fill="#703A31" fill-opacity="0.38"/>
<rect x="738.951" y="10" width="35.4247" height="35.4247" transform="rotate(45 755.951 20)" fill="#703A31" fill-opacity="0.38"/>
</svg>
