<svg width="730" height="713" viewBox="0 0 730 713" fill="none" xmlns="http://www.w3.org/2000/svg">
<g opacity="0.15">
<path d="M711.573 -682.721L29.3197 -0.650391L711.573 681.421L1393.83 -0.650391L711.573 -682.721Z" fill="#FFA800"/>
<path d="M712.917 712.447L690.768 691.688L705.995 676.465L697.689 666.777L703.226 661.242L712.917 669.545L721.222 661.242L726.76 666.777L718.454 676.465L733.681 691.688L712.917 712.447Z" fill="#9D1A1A"/>
<path d="M678.309 677.857L665.85 665.402L696.305 634.955L708.763 647.411L678.309 677.857ZM653.391 652.946L640.932 640.491L671.387 610.044L683.846 622.499L653.391 652.946ZM628.474 628.035L616.015 615.58L646.469 585.134L658.928 597.589L628.474 628.035ZM602.172 603.125L589.713 590.669L620.168 560.222L632.626 572.678L602.172 603.125ZM577.254 576.83L564.796 564.375L595.25 533.928L607.709 546.383L577.254 576.83ZM552.337 551.919L539.878 539.463L570.333 509.017L582.791 521.472L552.337 551.919ZM527.419 527.008L514.961 514.553L545.415 484.106L557.874 496.562L527.419 527.008ZM501.117 502.098L488.659 489.642L519.114 459.195L531.572 471.651L501.117 502.098ZM476.2 475.803L463.742 463.347L494.196 432.901L506.655 445.356L476.2 475.803ZM451.282 450.892L438.824 438.436L469.279 407.989L481.737 420.445L451.282 450.892ZM424.981 425.981L412.522 413.525L442.977 383.079L455.436 395.534L424.981 425.981ZM400.063 399.686L387.605 387.23L418.059 356.784L430.518 369.239L400.063 399.686ZM375.146 374.775L362.687 362.32L393.142 331.873L405.601 344.329L375.146 374.775ZM350.228 349.865L337.77 337.409L368.224 306.962L380.683 319.418L350.228 349.865ZM323.927 324.953L311.468 312.498L341.922 282.052L354.381 294.507L323.927 324.953ZM299.009 298.659L286.55 286.203L317.005 255.756L329.464 268.212L299.009 298.659ZM274.092 273.748L261.633 261.293L292.087 230.846L304.547 243.302L274.092 273.748ZM249.174 248.837L236.715 236.382L267.17 205.935L279.629 218.391L249.174 248.837ZM222.872 223.926L210.414 211.471L240.868 181.024L253.327 193.479L222.872 223.926ZM197.955 197.632L185.496 185.176L215.951 154.729L228.41 167.185L197.955 197.632ZM173.038 172.72L160.579 160.265L191.033 129.819L203.492 142.274L173.038 172.72ZM146.735 147.81L134.277 135.355L164.732 104.908L177.19 117.363L146.735 147.81ZM121.818 122.899L109.36 110.443L139.814 79.9973L152.273 92.4522L121.818 122.899ZM96.9009 96.6039L84.4418 84.1489L114.897 53.7022L127.355 66.158L96.9009 96.6039ZM71.9831 71.6932L59.5245 59.2383L89.9793 28.7915L102.438 41.2464L71.9831 71.6932ZM45.6814 46.7825L33.2228 34.3268L63.6772 3.88086L76.1363 16.3358L45.6814 46.7825Z" fill="#9D1A1A"/>
<path d="M20.7646 20.4868L0 -0.272217L20.7646 -21.0312L35.9916 -5.80745L44.2975 -15.4952L51.219 -8.57549L41.5291 -0.272217L51.219 8.0319L44.2975 14.9516L35.9916 6.64746L20.7646 20.4868Z" fill="#9D1A1A"/>
<path d="M746.14 677.857L715.685 647.411L728.144 634.955L758.599 665.402L746.14 677.857ZM771.057 652.946L740.603 622.499L753.061 610.044L783.516 640.491L771.057 652.946ZM797.359 628.035L766.904 597.589L779.363 585.134L809.818 615.58L797.359 628.035ZM822.277 603.125L791.822 572.678L804.28 560.222L834.735 590.669L822.277 603.125ZM847.194 576.83L816.74 546.383L829.198 533.928L859.653 564.375L847.194 576.83ZM872.112 551.919L841.657 521.472L854.116 509.017L884.57 539.463L872.112 551.919ZM898.413 527.008L867.959 496.562L880.417 484.106L910.872 514.553L898.413 527.008ZM923.331 502.098L892.876 471.651L905.335 459.195L935.789 489.642L923.331 502.098ZM948.248 475.803L917.794 445.356L930.252 432.901L960.707 463.347L948.248 475.803ZM973.166 450.892L942.711 420.445L955.17 407.989L985.624 438.436L973.166 450.892ZM999.467 425.981L969.013 395.534L981.472 383.079L1011.93 413.525L999.467 425.981ZM1024.39 399.686L993.93 369.239L1006.39 356.784L1036.84 387.23L1024.39 399.686ZM1049.3 374.775L1018.85 344.329L1031.31 331.873L1061.76 362.32L1049.3 374.775ZM1075.6 349.865L1045.15 319.418L1057.61 306.962L1088.06 337.409L1075.6 349.865ZM1100.52 324.953L1070.07 294.507L1082.53 282.052L1112.98 312.498L1100.52 324.953ZM1125.44 298.659L1094.98 268.212L1107.44 255.756L1137.9 286.203L1125.44 298.659ZM1150.36 273.748L1119.9 243.302L1132.36 230.846L1162.82 261.293L1150.36 273.748ZM1176.66 248.837L1146.2 218.391L1158.66 205.935L1189.12 236.382L1176.66 248.837ZM1201.58 223.926L1171.12 193.479L1183.58 181.024L1214.03 211.471L1201.58 223.926ZM1226.49 197.632L1196.04 167.185L1208.5 154.729L1238.95 185.176L1226.49 197.632ZM1251.41 172.72L1220.96 142.274L1233.41 129.819L1263.87 160.265L1251.41 172.72ZM1277.71 147.81L1247.26 117.363L1259.72 104.908L1290.17 135.355L1277.71 147.81ZM1302.63 122.899L1272.18 92.4522L1284.63 79.9973L1315.09 110.443L1302.63 122.899ZM1327.55 96.6039L1297.09 66.158L1309.55 53.7022L1340.01 84.1489L1327.55 96.6039ZM1353.85 71.6932L1323.39 41.2464L1335.85 28.7915L1366.31 59.2383L1353.85 71.6932ZM1378.77 46.7825L1348.31 16.3358L1360.77 3.88086L1391.23 34.3268L1378.77 46.7825Z" fill="#9D1A1A"/>
<path d="M712.916 518.703L689.383 495.177L705.995 478.569L696.305 468.882L703.226 463.346L712.916 471.65L721.222 463.346L728.143 468.882L719.838 478.569L735.065 495.177L712.916 518.703Z" fill="#9D1A1A"/>
<path d="M675.54 481.336L661.697 467.497L694.92 434.282L708.763 448.122L675.54 481.336ZM649.238 455.041L635.395 441.202L668.618 407.987L682.461 421.826L649.238 455.041ZM621.552 427.363L607.709 413.523L640.932 380.308L654.775 394.148L621.552 427.363ZM595.25 401.067L581.407 387.228L614.631 354.014L628.474 367.853L595.25 401.067ZM567.564 373.389L553.721 359.549L586.945 326.335L600.788 340.175L567.564 373.389ZM541.262 347.094L527.419 333.255L560.643 300.04L574.486 313.88L541.262 347.094ZM513.576 319.416L499.733 305.576L532.957 272.362L546.8 286.201L513.576 319.416ZM487.274 293.121L473.431 279.281L506.655 246.067L520.498 259.907L487.274 293.121ZM459.588 265.442L445.745 251.603L478.969 218.389L492.812 232.228L459.588 265.442ZM433.287 239.148L419.444 225.308L452.667 192.093L466.51 205.933L433.287 239.148ZM405.601 211.469L391.757 197.63L424.981 164.415L438.824 178.254L405.601 211.469ZM379.299 185.174L365.456 171.334L398.679 138.12L412.522 151.959L379.299 185.174ZM351.613 157.495L337.77 143.656L370.993 110.441L384.836 124.28L351.613 157.495ZM325.311 131.2L311.468 117.361L344.691 84.1467L358.534 97.986L325.311 131.2ZM297.625 103.521L283.782 89.6819L317.005 56.468L330.848 70.3073L297.625 103.521ZM271.323 77.227L257.48 63.3876L290.703 30.1729L304.546 44.0122L271.323 77.227ZM243.637 49.5483L229.794 35.7089L263.017 2.49414L276.86 16.3335L243.637 49.5483Z" fill="#9D1A1A"/>
<path d="M217.335 23.2564L193.802 -0.270649L217.335 -23.7969L232.563 -7.19033L242.253 -16.8772L249.175 -9.95752L239.484 -0.270649L249.175 9.41707L242.253 16.3367L232.563 6.64903L217.335 23.2564Z" fill="#9D1A1A"/>
<path d="M748.908 481.336L715.685 448.122L729.528 434.282L762.751 467.497L748.908 481.336ZM776.594 455.041L743.371 421.826L757.214 407.987L790.437 441.202L776.594 455.041ZM802.896 427.363L769.673 394.148L783.516 380.308L816.74 413.523L802.896 427.363ZM830.583 401.067L797.359 367.853L811.202 354.014L844.426 387.228L830.583 401.067ZM856.884 373.389L823.661 340.175L837.504 326.335L870.727 359.549L856.884 373.389ZM884.57 347.094L851.347 313.88L865.19 300.04L898.413 333.255L884.57 347.094ZM910.872 319.416L877.649 286.201L891.492 272.362L924.715 305.576L910.872 319.416ZM938.558 293.121L905.335 259.907L919.178 246.067L952.401 279.281L938.558 293.121ZM964.86 265.442L931.637 232.228L945.48 218.389L978.703 251.603L964.86 265.442ZM992.546 239.148L959.323 205.933L973.166 192.093L1006.39 225.308L992.546 239.148ZM1018.85 211.469L985.624 178.254L999.467 164.415L1032.69 197.63L1018.85 211.469ZM1046.53 185.174L1013.31 151.959L1027.15 138.12L1060.38 171.334L1046.53 185.174ZM1072.84 157.495L1039.61 124.28L1053.46 110.441L1086.68 143.656L1072.84 157.495ZM1100.52 131.2L1067.3 97.986L1081.14 84.1467L1114.37 117.361L1100.52 131.2ZM1126.82 103.521L1093.6 70.3073L1107.44 56.468L1140.67 89.6819L1126.82 103.521ZM1154.51 77.227L1121.29 44.0122L1135.13 30.1729L1168.35 63.3876L1154.51 77.227ZM1180.81 49.5483L1147.59 16.3335L1161.43 2.49414L1194.65 35.7089L1180.81 49.5483Z" fill="#9D1A1A"/>
<path d="M712.177 305.733L1018.55 -0.5625L712.177 -306.858L405.8 -0.5625L712.177 305.733Z" fill="#9D1A1A"/>
</g>
</svg>
