<svg width="711" height="713" viewBox="0 0 711 713" fill="none" xmlns="http://www.w3.org/2000/svg">
<g opacity="0.15">
<path d="M-2.42748 30.2787L-684.68 712.35L-2.42748 1394.42L679.825 712.35L-2.42748 30.2787Z" fill="#FFA800"/>
<path d="M7.22227 51.2058L-1.08322 42.9025L-10.7735 51.2058L-16.3107 45.6706L-8.00474 35.9828L-23.2322 22.1435L-1.08322 0L19.6813 22.1435L4.45391 35.9828L12.7598 45.6706L7.22227 51.2058Z" fill="#9D1A1A"/>
<path d="M646.771 708.578L634.312 696.123L664.767 665.677L677.226 678.132L646.771 708.578ZM621.854 683.668L609.395 671.212L639.849 640.766L652.308 653.221L621.854 683.668ZM596.936 658.757L584.477 646.301L614.932 615.854L627.391 628.31L596.936 658.757ZM570.634 632.462L558.176 620.007L588.63 589.56L601.089 602.015L570.634 632.462ZM545.717 607.551L533.258 595.095L563.713 564.65L576.171 577.104L545.717 607.551ZM520.799 582.641L508.34 570.185L538.795 539.738L551.254 552.194L520.799 582.641ZM495.882 557.73L483.423 545.274L513.878 514.827L526.336 527.283L495.882 557.73ZM469.58 531.435L457.121 518.979L487.576 488.533L500.035 500.988L469.58 531.435ZM444.662 506.524L432.204 494.068L462.659 463.622L475.117 476.077L444.662 506.524ZM419.745 481.613L407.286 469.158L437.741 438.711L450.2 451.167L419.745 481.613ZM394.827 456.702L382.369 444.247L412.824 413.8L425.282 426.256L394.827 456.702ZM368.526 430.408L356.067 417.952L386.522 387.505L398.98 399.961L368.526 430.408ZM343.608 405.497L331.15 393.041L361.604 362.594L374.063 375.05L343.608 405.497ZM318.691 380.585L306.232 368.131L336.687 337.684L349.145 350.14L318.691 380.585ZM293.773 355.675L281.315 343.22L311.769 312.773L324.228 325.228L293.773 355.675ZM267.472 329.38L255.013 316.925L285.467 286.478L297.926 298.934L267.472 329.38ZM242.554 304.469L230.095 292.014L260.55 261.567L273.009 274.023L242.554 304.469ZM217.637 279.558L205.178 267.103L235.632 236.657L248.091 249.112L217.637 279.558ZM191.335 253.264L178.876 240.808L209.331 210.362L221.789 222.817L191.335 253.264ZM166.417 228.353L153.958 215.898L184.413 185.451L196.872 197.907L166.417 228.353ZM141.5 203.442L129.041 190.987L159.496 160.54L171.955 172.995L141.5 203.442ZM116.582 178.531L104.123 166.075L134.578 135.63L147.037 148.084L116.582 178.531ZM90.2803 152.236L77.8217 139.781L108.277 109.334L120.735 121.79L90.2803 152.236ZM65.363 127.325L52.9044 114.87L83.3588 84.4237L95.8179 96.8787L65.363 127.325ZM40.4457 102.415L27.9866 89.959L58.4415 59.5131L70.9002 71.968L40.4457 102.415ZM15.528 77.5041L3.06934 65.0483L33.5242 34.6016L45.9829 47.0573L15.528 77.5041Z" fill="#9D1A1A"/>
<path d="M689.685 733.487L674.457 719.647L666.152 727.952L659.23 721.032L668.92 712.728L659.23 704.425L666.152 697.505L674.457 707.193L689.685 691.969L710.449 712.728L689.685 733.487Z" fill="#9D1A1A"/>
<path d="M-10.7741 250.494L-17.6957 243.574L-8.00536 233.886L-24.6172 217.279L-1.08384 193.752L21.0647 217.279L5.83768 233.886L14.1432 243.574L7.22165 250.494L-1.08384 240.806L-10.7741 250.494Z" fill="#9D1A1A"/>
<path d="M447.431 708.574L433.588 694.734L466.811 661.521L480.655 675.36L447.431 708.574ZM421.13 682.28L407.287 668.44L440.51 635.225L454.353 649.065L421.13 682.28ZM393.443 654.601L379.6 640.761L412.824 607.547L426.667 621.386L393.443 654.601ZM367.141 628.306L353.298 614.466L386.522 581.252L400.365 595.091L367.141 628.306ZM339.455 600.627L325.612 586.788L358.836 553.573L372.679 567.412L339.455 600.627ZM313.154 574.332L299.311 560.493L332.534 527.279L346.377 541.118L313.154 574.332ZM285.467 546.653L271.624 532.814L304.848 499.6L318.691 513.439L285.467 546.653ZM259.166 520.359L245.323 506.52L278.546 473.305L292.389 487.144L259.166 520.359ZM231.48 492.68L217.637 478.841L250.86 445.626L264.703 459.465L231.48 492.68ZM205.178 466.385L191.335 452.546L224.558 419.332L238.401 433.171L205.178 466.385ZM177.492 438.706L163.649 424.867L196.872 391.653L210.715 405.492L177.492 438.706ZM151.19 412.412L137.347 398.573L170.57 365.358L184.413 379.197L151.19 412.412ZM123.504 384.733L109.661 370.894L142.884 337.679L156.727 351.519L123.504 384.733ZM97.202 358.438L83.3589 344.599L116.583 311.384L130.426 325.223L97.202 358.438ZM69.5159 330.76L55.6729 316.92L88.8965 283.705L102.74 297.545L69.5159 330.76ZM43.2142 304.464L29.3711 290.625L62.5944 257.411L76.4374 271.25L43.2142 304.464ZM15.5281 276.786L1.68506 262.946L34.9083 229.732L48.7513 243.572L15.5281 276.786Z" fill="#9D1A1A"/>
<path d="M494.497 736.256L477.885 719.649L468.195 729.337L461.273 722.417L470.963 712.729L461.273 703.042L468.195 696.123L477.885 705.81L494.497 689.203L516.646 712.729L494.497 736.256Z" fill="#9D1A1A"/>
<path d="M-1.82325 1018.73L304.554 712.438L-1.82325 406.142L-308.201 712.438L-1.82325 1018.73Z" fill="#9D1A1A"/>
</g>
</svg>
