<svg viewBox="0 0 154 114" fill="none" xmlns="http://www.w3.org/2000/svg">
    <path d="M11.6519 20.28C12.1953 20.7447 12.8867 21 13.6017 21H140.398C141.113 21 141.805 20.7447 142.348 20.28L151.287 12.6361C152.703 11.425 152.684 9.2292 151.247 8.04273L142.338 0.686644C141.8 0.242786 141.125 0 140.428 0H13.5723C12.8752 0 12.1998 0.242786 11.6622 0.686642L2.75299 8.04273C1.31599 9.2292 1.29703 11.425 2.71329 12.6361L11.6519 20.28Z" fill="#FFB800"/>
    <path d="M11.6519 66.946C12.1953 67.4107 12.8867 67.666 13.6017 67.666H140.398C141.113 67.666 141.805 67.4107 142.348 66.946L151.287 59.3021C152.703 58.091 152.684 55.8952 151.247 54.7087L142.338 47.3527C141.8 46.9088 141.125 46.666 140.428 46.666H13.5723C12.8752 46.666 12.1998 46.9088 11.6622 47.3527L2.75299 54.7087C1.31599 55.8952 1.29703 58.091 2.71329 59.3021L11.6519 66.946Z" fill="#FFB800"/>
    <path d="M11.6519 112.446C12.1953 112.911 12.8867 113.166 13.6017 113.166H140.398C141.113 113.166 141.805 112.911 142.348 112.446L151.287 104.802C152.703 103.591 152.684 101.395 151.247 100.209L142.338 92.8527C141.8 92.4088 141.125 92.166 140.428 92.166H13.5723C12.8752 92.166 12.1998 92.4088 11.6622 92.8527L2.75299 100.209C1.31599 101.395 1.29703 103.591 2.71329 104.802L11.6519 112.446Z" fill="#FFB800"/>
</svg>
