<svg width="338" height="241" viewBox="0 0 338 241" fill="none" xmlns="http://www.w3.org/2000/svg">
<path d="M335.703 13.6105C338.801 10.4609 338.76 5.39574 335.61 2.29716C332.461 -0.80143 327.396 -0.760082 324.297 2.38951L335.703 13.6105ZM99.2766 229.479L93.5738 235.089L99.2766 229.479ZM0.297157 140.277L93.5738 235.089L104.979 223.868L11.7028 129.056L0.297157 140.277ZM117.811 235.089L335.703 13.6105L324.297 2.38951L106.405 223.868L117.811 235.089ZM93.5738 235.089C100.234 241.859 111.15 241.859 117.811 235.089L106.405 223.868C106.013 224.266 105.371 224.266 104.979 223.868L93.5738 235.089Z" fill="#FFA800"/>
</svg>
