<svg width="101" height="101" viewBox="0 0 101 101" fill="none" xmlns="http://www.w3.org/2000/svg">
<path d="M50.5 61.1244C56.3674 61.1244 61.1237 56.368 61.1237 50.5007C61.1237 44.6333 56.3674 39.877 50.5 39.877C44.6327 39.877 39.8763 44.6333 39.8763 50.5007C39.8763 56.368 44.6327 61.1244 50.5 61.1244Z" fill="white"/>
<path d="M75.2637 31.7225C74.6652 30.2262 73.9919 29.1788 72.8696 28.0566C71.7474 26.9343 70.7 26.261 69.2037 25.6625C68.0815 25.2136 66.4356 24.6899 63.2933 24.5403C59.9267 24.3906 58.9541 24.3906 50.4252 24.3906C41.9711 24.3906 40.9237 24.3906 37.557 24.5403C34.4896 24.6899 32.7689 25.2136 31.6467 25.6625C30.1504 26.261 29.103 26.9343 27.9807 28.0566C26.8585 29.1788 26.1852 30.2262 25.5867 31.7225C25.1378 32.8447 24.6141 34.4906 24.4644 37.6328C24.3148 40.9995 24.3148 41.9721 24.3148 50.501C24.3148 58.9551 24.3148 60.0025 24.4644 63.3691C24.6141 66.4366 25.1378 68.1573 25.5867 69.2795C26.1852 70.7758 26.8585 71.8232 27.9807 72.9454C29.103 74.0677 30.1504 74.741 31.6467 75.3395C32.7689 75.7884 34.4148 76.3121 37.557 76.4617C40.9237 76.6114 41.8963 76.6114 50.4252 76.6114C58.9541 76.6114 59.9267 76.6114 63.2933 76.4617C66.3607 76.3121 68.0815 75.7884 69.2037 75.3395C70.7 74.741 71.7474 74.0677 72.8696 72.9454C73.9919 71.8232 74.6652 70.7758 75.2637 69.2795C75.7126 68.1573 76.2363 66.5114 76.3859 63.3691C76.5356 60.0025 76.5356 59.0299 76.5356 50.501C76.5356 42.0469 76.5356 40.9995 76.3859 37.6328C76.2363 34.5654 75.7126 32.8447 75.2637 31.7225ZM50.5 66.8106C41.4474 66.8106 34.1904 59.4788 34.1904 50.501C34.1904 41.4484 41.5222 34.1914 50.5 34.1914C59.4778 34.1914 66.8096 41.5232 66.8096 50.501C66.8096 59.5536 59.5526 66.8106 50.5 66.8106ZM67.483 37.3336C65.3881 37.3336 63.6674 35.6128 63.6674 33.518C63.6674 31.4232 65.3881 29.7025 67.483 29.7025C69.5778 29.7025 71.2985 31.4232 71.2985 33.518C71.2985 35.6128 69.5778 37.3336 67.483 37.3336Z" fill="white"/>
<path d="M50.5 0C22.5941 0 0 22.5941 0 50.5C0 78.4059 22.5941 101 50.5 101C78.4059 101 101 78.4059 101 50.5C101 22.5941 78.4059 0 50.5 0ZM82.0718 63.5926C81.9222 66.9593 81.3985 69.2785 80.5756 71.2985C79.7526 73.3933 78.7052 75.1889 76.9096 76.9096C75.1141 78.7052 73.3933 79.7526 71.2985 80.5756C69.2785 81.3985 66.9593 81.9222 63.5926 82.0718C60.2259 82.2215 59.1037 82.2963 50.5 82.2963C41.8963 82.2963 40.7741 82.2963 37.4074 82.0718C34.0407 81.9222 31.7215 81.3985 29.7015 80.5756C27.6067 79.7526 25.8111 78.7052 24.0904 76.9096C22.2948 75.1141 21.2474 73.3933 20.4244 71.2985C19.6015 69.2785 19.0778 66.9593 18.9281 63.5926C18.7037 60.2259 18.7037 59.1037 18.7037 50.5C18.7037 41.8963 18.7037 40.7741 18.9281 37.4074C19.0778 34.0407 19.6015 31.7215 20.4244 29.7015C21.2474 27.6067 22.2948 25.8111 24.0904 24.0904C25.8859 22.2948 27.6067 21.2474 29.7015 20.4244C31.7215 19.6015 34.0407 19.0778 37.4074 18.9281C40.7741 18.7037 41.8963 18.7037 50.5 18.7037C59.1037 18.7037 60.2259 18.7037 63.5926 18.9281C66.9593 19.0778 69.2785 19.6015 71.2985 20.4244C73.3933 21.2474 75.1889 22.2948 76.9096 24.0904C78.7052 25.8859 79.7526 27.6067 80.5756 29.7015C81.3985 31.7215 81.9222 34.0407 82.0718 37.4074C82.2215 40.7741 82.2963 41.8963 82.2963 50.5C82.2963 59.1037 82.2963 60.2259 82.0718 63.5926Z" fill="white"/>
</svg>
