<svg width="132" height="132" viewBox="0 0 132 132" fill="none" xmlns="http://www.w3.org/2000/svg">
<circle cx="66" cy="66" r="66" fill="#703A31"/>
<path d="M108 57.2088C108 55.412 107.717 53.8043 107.244 52.2912C107.244 52.0075 107.244 52.0075 106.96 51.7238L99.8674 34.1337C98.5434 30.4455 95.1389 28.1758 90.9778 28.1758H41.423C37.2619 28.1758 34.1411 30.2563 32.8171 33.9446L25.2515 51.9129C25.2515 51.9129 25.2515 52.1966 25.2515 52.4803C24.6841 53.9934 24.4004 55.8849 24.4004 57.6817C24.4004 62.4102 26.1972 66.5713 29.6018 69.6921V96.0772C29.6018 100.238 33.0063 103.927 37.4511 103.927H94.0986C98.2597 103.927 101.948 100.522 101.948 96.0772V70.7324C105.636 66.855 108 62.1265 108 57.2088ZM94.0986 97.1175H37.4511C36.4108 97.1175 35.8434 96.3609 35.8434 95.5098V72.8129C37.4511 73.3803 39.2479 73.5695 41.3285 73.5695C46.2461 73.5695 50.6909 71.4889 53.9063 67.6116C57.0271 71.2998 61.4719 73.3803 66.4841 73.3803C71.4964 73.3803 75.8466 71.2998 79.062 67.4224C82.1828 71.1107 86.9113 73.3803 91.8289 73.3803C93.4366 73.3803 94.6661 73.0966 95.99 72.8129V95.3206C95.7063 96.3609 94.9498 97.1175 94.0986 97.1175ZM96.4629 66.2876C95.1389 67.0441 93.3421 67.3278 91.5452 67.3278C87.857 67.3278 84.4525 65.531 82.6556 62.4102C82.3719 62.1265 82.3719 61.6536 81.8991 61.0862C81.3317 60.5188 80.5751 59.7622 79.062 59.7622C77.738 59.7622 76.6977 60.3297 76.2249 61.0862C75.6574 61.6536 75.6574 61.8428 75.4683 62.4102C73.6715 65.531 70.2669 67.3278 66.5787 67.3278C62.8905 67.3278 59.4859 65.531 57.6891 62.4102C57.4054 62.1265 57.4054 61.6536 56.9325 61.3699C55.6086 59.7622 52.204 59.7622 51.1638 61.3699C50.5963 61.9373 50.4072 62.4102 50.4072 62.6939C48.6104 65.8147 45.2058 67.6116 41.5176 67.6116C39.7208 67.6116 37.8294 67.3278 36.5999 66.5713C33.1954 64.7744 31.1149 61.0862 31.1149 57.2088C31.1149 56.1686 31.3986 54.8446 31.6823 53.8043V53.5206L39.2479 35.7414C39.5316 35.174 39.8153 33.9446 42.085 33.9446H91.5452C92.5855 33.9446 94.1932 34.2283 94.6661 35.7414L101.759 53.2369V53.5206C102.043 54.5609 102.326 55.8848 102.326 56.9251C101.948 60.8025 99.8674 64.4907 96.4629 66.2876Z" fill="#FFA800"/>
</svg>
