<svg width="162" height="162" viewBox="0 0 162 162" fill="none" xmlns="http://www.w3.org/2000/svg">
<circle cx="81" cy="81" r="81" fill="#703A31"/>
<path d="M58.2748 90.0985L35.5713 112.513C33.5031 114.554 35.2561 118.05 38.1294 117.613L76.3505 111.808C76.4996 111.786 76.6502 111.774 76.801 111.774H107.131C108.525 111.774 109.735 110.814 110.052 109.457L114.524 90.3284C114.81 89.104 114.302 87.8309 113.252 87.1396L77.3251 63.4941C76.8354 63.1718 76.262 63 75.6758 63H47.6819C45.2334 63 43.8161 65.7748 45.2514 67.7585L58.5977 86.2051C59.4657 87.4048 59.3285 89.0582 58.2748 90.0985Z" stroke="white" stroke-width="6"/>
<path d="M126 40L103.511 70.8774" stroke="white" stroke-width="6"/>
<path d="M118 35L132.784 45.2682" stroke="white" stroke-width="6" stroke-linecap="round"/>
<path d="M99.1284 69.512L102.594 68.8874C104.092 68.6172 105.555 69.5127 105.997 70.9702L107.16 74.8091C107.984 77.5305 104.913 79.7648 102.577 78.1427L97.9492 74.9284C95.754 73.4037 96.498 69.9861 99.1284 69.512Z" stroke="white" stroke-width="4"/>
</svg>
