<svg width="961" height="515" viewBox="0 0 961 515" fill="none" xmlns="http://www.w3.org/2000/svg">
<g filter="url(#filter0_d_126_3005)">
<path d="M176.67 425.248C176.67 400.687 175.25 375.924 177.076 351.363C179.917 309.956 209.338 276.261 248.498 266.721C285.832 257.587 327.021 274.028 348.935 308.332C355.022 317.872 358.065 318.887 368.616 313.812C430.299 283.365 503.141 328.427 504.561 397.237C505.17 429.104 504.967 460.972 505.778 492.84C505.981 502.38 503.952 506.845 493.401 505.831C481.43 504.613 465.807 509.484 458.299 503.395C450.386 497.102 456.067 480.661 455.864 468.685C455.459 444.937 456.067 420.985 455.662 397.237C455.053 371.458 435.371 350.348 411.835 349.536C387.08 348.725 367.399 367.196 366.384 392.771C365.776 410.227 365.979 427.886 366.384 445.343C366.587 453.259 364.558 456.101 356.036 456.304C316.47 457.318 316.47 457.521 316.47 418.549C316.47 397.846 316.876 377.142 316.267 356.641C315.253 319.699 284.412 300.01 250.527 314.624C234.295 321.525 225.976 334.11 225.57 351.363C224.961 386.479 224.961 421.391 224.758 456.507C224.758 469.497 224.555 482.488 224.758 495.682C224.961 502.583 222.729 505.425 215.425 505.019C205.482 504.613 195.54 504.41 185.801 505.019C178.091 505.425 177.076 501.974 177.076 495.479C177.279 472.136 177.279 448.793 177.279 425.451C177.076 425.248 176.873 425.248 176.67 425.248Z" fill="white"/>
<path d="M731.812 416.318C731.812 391.148 731.609 365.979 731.812 341.012C732.015 324.571 726.536 310.971 711.927 302.446C707.464 299.808 705.637 296.966 705.84 291.688C706.246 281.336 706.449 270.985 705.84 260.836C705.232 251.499 709.087 251.904 716.188 253.934C756.363 266.113 782.538 302.649 783.349 349.132C783.552 357.251 783.755 365.37 783.349 373.286C782.943 381.405 785.987 382.014 793.089 379.781C813.987 373.286 825.959 358.469 826.365 336.344C826.567 323.759 826.77 311.174 826.365 298.59C826.162 291.688 828.394 289.456 835.495 289.253C874.25 287.629 873.438 287.426 874.655 325.18C875.67 355.221 867.757 380.999 845.843 401.703C840.974 406.372 843.408 408.604 846.858 412.258C862.481 428.293 869.989 448.185 872.626 470.107C873.641 477.82 871.612 481.068 863.699 480.256C860.655 479.85 857.409 480.256 854.365 480.256C846.655 480.256 838.336 482.083 831.64 479.647C823.93 476.805 826.973 466.454 823.93 459.755C817.843 446.359 808.915 436.616 794.915 431.338C787.001 428.293 783.349 429.714 783.552 439.254C783.958 458.131 783.349 477.008 783.755 495.885C783.958 503.193 782.132 506.44 774.016 506.034C763.668 505.426 753.32 505.02 742.972 506.034C732.015 507.252 730.595 502.381 730.797 493.044C733.029 467.874 731.812 441.893 731.812 416.318C732.015 416.318 731.609 416.318 731.812 416.318Z" fill="white"/>
<path d="M318.093 107.992C318.093 94.5949 318.296 80.9953 318.093 67.5987C317.891 61.5093 319.514 58.4646 326.21 58.6676C335.543 59.0735 345.08 59.0735 354.616 58.6676C360.703 58.4646 363.544 60.0884 363.341 66.9897C362.529 95.6098 363.138 124.433 361.312 153.053C358.268 202.174 317.891 239.522 269.803 239.319C221.309 239.116 180.525 200.956 177.888 151.632C176.467 123.418 177.482 95.0009 177.279 66.7867C177.279 61.5093 178.294 59.0735 184.584 58.4646C220.497 55.2169 220.497 55.0139 220.497 90.5353C220.497 107.18 220.294 123.824 220.497 140.468C221.106 171.727 242.208 193.243 271.02 193.649C293.542 194.055 320.934 169.697 318.093 140.265C317.282 129.71 318.093 118.749 318.093 107.992Z" fill="white"/>
<path d="M382.819 60.0878C399.052 65.1623 402.907 77.747 407.573 91.1437C424.414 73.8904 444.299 63.5385 467.43 59.4789C475.343 58.058 479.604 59.2759 478.589 68.41C478.184 71.4547 478.386 74.7023 478.589 77.747C479.807 93.3764 480.213 105.758 458.705 109.615C441.661 112.659 433.748 128.492 433.951 146.76C434.154 174.162 433.951 201.564 434.56 228.764C434.762 237.086 432.53 239.927 424.009 239.319C413.661 238.507 403.313 238.71 392.964 239.319C385.863 239.724 382.616 238.101 382.616 229.981C383.022 173.756 382.819 117.734 382.819 60.0878Z" fill="white"/>
<path d="M907.323 412.865C907.323 386.275 907.729 359.888 907.12 333.5C906.917 323.148 910.163 320.713 920.106 320.916C956.425 321.119 956.425 320.713 956.425 357.249C956.425 402.107 956.222 446.966 956.628 492.027C956.628 501.77 955.411 507.454 943.642 505.83C932.28 504.409 917.265 510.498 909.96 503.394C902.453 496.087 907.728 481.269 907.526 469.699C906.917 450.619 907.323 431.742 907.323 412.865Z" fill="white"/>
<path d="M929.439 289.86C915.236 288.643 904.888 276.464 906.105 262.052C907.12 248.859 919.903 238.304 933.091 239.522C946.483 240.739 956.628 252.715 955.816 266.315C954.802 279.914 942.628 290.875 929.439 289.86Z" fill="white"/>
<path d="M163.076 233.839C158.003 230.186 156.786 222.269 154.96 215.774C150.902 201.16 144.206 187.966 133.046 177.817C126.756 172.133 126.553 168.886 132.64 162.39C165.916 126.666 167.54 72.8766 137.307 35.5284C106.872 -1.81974 54.3199 -10.9538 11.9132 14.0126C7.44935 16.6514 4.40581 19.0871 4.40581 25.1765C4.40581 105.556 4.40581 185.936 4 266.316C4 273.217 6.02903 275.856 13.1306 275.653C23.8845 275.247 34.8412 275.044 45.5951 275.653C54.117 276.262 56.3489 273.217 56.146 265.098C55.5373 244.8 56.7547 224.705 55.7402 204.407C55.1315 193.243 59.5953 191.822 68.9289 192.837C89.2191 195.273 105.654 209.685 112.147 231.809C121.886 264.692 143.191 286.411 177.279 298.793C177.279 291.891 177.279 287.02 177.279 281.945C177.279 264.895 180.728 246.627 163.076 233.839ZM64.8708 146.761C57.3634 147.573 55.7402 145.137 55.7402 138.236C55.9431 110.022 56.146 81.8077 55.7402 53.5936C55.7402 46.8953 57.9721 45.2714 64.2621 45.4744C91.0453 46.2863 112.959 68.4111 112.756 94.7984C112.35 123.215 93.683 143.31 64.8708 146.761Z" fill="white"/>
<path d="M674.188 142.092C669.521 96.8273 631.984 61.103 587.751 58.8702C542.91 56.6374 502.735 87.8962 492.995 132.349C487.923 155.082 491.981 178.019 490.155 202.377C490.155 218.818 490.358 236.68 489.952 254.542C489.749 261.443 491.778 264.082 499.083 263.676C509.836 263.067 520.59 263.067 531.344 263.676C539.663 264.285 541.083 260.429 540.881 253.324C540.475 240.74 541.083 228.155 540.678 215.57C540.475 208.872 542.301 206.03 549.605 206.233C572.533 206.639 595.461 206.639 618.389 206.233C624.679 206.233 626.708 208.06 627.114 214.555C628.332 239.319 628.534 239.116 652.883 239.116C657.752 239.116 662.825 238.913 667.695 239.116C672.97 239.319 676.217 238.101 676.014 231.809C674.796 202.174 677.434 172.133 674.188 142.092ZM619.201 155.488C607.636 155.488 595.867 155.488 584.302 155.488C573.142 155.488 561.779 154.879 550.62 155.691C541.489 156.3 540.272 152.444 540.678 144.73C541.489 119.358 558.127 103.729 584.302 104.338C608.853 104.947 626.708 124.433 626.505 149.196C626.303 155.285 623.665 155.488 619.201 155.488Z" fill="white"/>
<path d="M708.478 393.38C706.043 344.056 666.68 304.881 619.81 303.663C570.707 302.445 530.127 337.967 525.054 388.103C523.228 406.777 524.851 425.654 524.851 444.531C524.445 444.531 525.257 444.531 524.851 444.531C524.851 451.635 525.257 459.348 525.46 466.656C525.663 479.24 521.199 497.508 525.663 502.583C533.17 511.108 550.214 504.207 562.997 505.425C571.519 506.236 575.171 503.801 574.562 494.464C573.751 483.3 574.562 471.933 574.359 460.769C574.157 454.477 575.171 451.026 582.881 451.229C606.215 451.635 629.752 451.635 653.086 451.229C658.767 451.229 660.593 452.65 660.999 458.739C662.419 481.067 662.622 481.067 684.941 481.067C690.42 481.067 695.695 480.661 701.174 481.067C707.667 481.676 709.696 479.037 709.696 472.745C708.884 446.358 709.898 419.97 708.478 393.38ZM652.274 400.281C640.506 400.281 628.94 400.281 617.172 400.281C605.404 400.281 593.838 399.875 582.07 400.484C575.374 400.687 573.751 398.049 573.548 391.756C572.736 365.775 589.983 349.334 617.984 349.334C644.564 349.537 658.564 370.443 659.984 394.395C660.39 400.89 656.332 400.281 652.274 400.281Z" fill="white"/>
<path d="M870.8 231.403C862.684 224.907 862.278 220.036 868.365 210.699C890.685 176.598 894.946 140.265 873.032 104.338C851.93 69.8311 819.669 55.0136 779.291 58.4642C732.624 62.3208 694.072 104.135 693.463 151.835C692.855 202.174 728.768 245.205 776.653 250.077C813.785 253.73 850.916 250.686 890.685 251.7C882.772 243.378 877.293 236.68 870.8 231.403ZM791.465 204.406C764.073 204.609 741.551 182.485 741.145 155.285C740.74 127.477 763.465 104.541 791.262 104.743C818.451 104.743 840.974 127.477 840.974 154.473C840.974 181.876 818.654 204.203 791.465 204.406Z" fill="white"/>
</g>
<defs>
<filter id="filter0_d_126_3005" x="0" y="0" width="960.628" height="514.916" filterUnits="userSpaceOnUse" color-interpolation-filters="sRGB">
<feFlood flood-opacity="0" result="BackgroundImageFix"/>
<feColorMatrix in="SourceAlpha" type="matrix" values="0 0 0 0 0 0 0 0 0 0 0 0 0 0 0 0 0 0 127 0" result="hardAlpha"/>
<feOffset dy="4"/>
<feGaussianBlur stdDeviation="2"/>
<feComposite in2="hardAlpha" operator="out"/>
<feColorMatrix type="matrix" values="0 0 0 0 0 0 0 0 0 0 0 0 0 0 0 0 0 0 0.25 0"/>
<feBlend mode="normal" in2="BackgroundImageFix" result="effect1_dropShadow_126_3005"/>
<feBlend mode="normal" in="SourceGraphic" in2="effect1_dropShadow_126_3005" result="shape"/>
</filter>
</defs>
</svg>
