<svg width="162" height="162" viewBox="0 0 162 162" fill="none" xmlns="http://www.w3.org/2000/svg">
<circle cx="81" cy="81" r="81" fill="#703A31"/>
<rect x="38" y="36" width="86" height="86" rx="7" stroke="white" stroke-width="6"/>
<path d="M76.9755 41.2409L78.0444 39.7609C79.3604 37.9388 81.4714 36.8594 83.7191 36.8594H117C120.866 36.8594 124 39.9934 124 43.8594V48.0131C124 50.6645 122.502 53.0884 120.13 54.2741L102.842 62.9185C99.1287 64.775 94.76 62.075 94.76 57.9237C94.76 54.8396 92.2598 52.3394 89.1756 52.3394H82.6503C76.9399 52.3394 73.6321 45.8702 76.9755 41.2409Z" stroke="white" stroke-width="6"/>
<path d="M45.994 104.326L41.9431 107.617C39.5914 109.528 38.7361 112.734 39.8238 115.563L40.5742 117.513C41.6139 120.217 44.2112 122.001 47.1076 122.001H72.8455C78.113 122.001 81.4932 116.402 79.0399 111.74L78.4564 110.632C76.9278 107.728 73.5866 106.275 70.4202 107.139L61.6319 109.536C58.9122 110.277 56.0547 108.946 54.8733 106.386C53.295 102.966 48.9171 101.95 45.994 104.326Z" stroke="white" stroke-width="6"/>
</svg>
