<svg width="150" height="148" viewBox="0 0 150 148" fill="none" xmlns="http://www.w3.org/2000/svg">
<path fill-rule="evenodd" clip-rule="evenodd" d="M31.4882 18.5098C22.3585 18.5098 15 26.6185 15 36.679V92.3489C15 102.409 22.3585 110.518 31.4882 110.518H38.4786C39.8593 110.518 40.9786 111.752 40.9786 113.273V129.015L63.0723 111.056C63.5021 110.707 64.0222 110.518 64.5563 110.518H101.987C111.117 110.518 118.476 102.409 118.476 92.3489V55.6363C118.476 54.1148 119.595 52.8814 120.976 52.8814C122.356 52.8814 123.476 54.1148 123.476 55.6363V92.3489C123.476 105.452 113.878 116.028 101.987 116.028H65.3786L39.9627 136.687C39.2035 137.304 38.1938 137.398 37.3517 136.93C36.5096 136.461 35.9786 135.51 35.9786 134.47V116.028H31.4882C19.5971 116.028 10 105.452 10 92.3489V36.679C10 23.5755 19.5971 13 31.4882 13H81.6605C83.0412 13 84.1605 14.2334 84.1605 15.7549C84.1605 17.2764 83.0412 18.5098 81.6605 18.5098H31.4882Z" fill="#FFA800"/>
<path fill-rule="evenodd" clip-rule="evenodd" d="M122.611 8.12193L133.936 18.2224C138.752 22.5181 138.752 29.483 133.936 33.7787L122.611 43.8792C117.795 48.1749 109.986 48.1749 105.17 43.8792L93.8454 33.7787C89.0291 29.483 89.0291 22.5181 93.8454 18.2224L105.17 8.12193C109.986 3.82616 117.795 3.82616 122.611 8.12193ZM119.44 10.9504C116.375 8.21668 111.406 8.21668 108.341 10.9504L97.0166 21.0508C93.9516 23.7845 93.9516 28.2166 97.0166 30.9503L108.341 41.0507C111.406 43.7844 116.375 43.7844 119.44 41.0507L130.765 30.9503C133.83 28.2166 133.83 23.7845 130.765 21.0508L119.44 10.9504Z" fill="#FFA800"/>
</svg>
