<svg width="202" height="200" viewBox="0 0 202 200" fill="none" xmlns="http://www.w3.org/2000/svg">
<g filter="url(#filter0_d_126_3859)">
<path fill-rule="evenodd" clip-rule="evenodd" d="M63.3993 52.8561C64.2703 52.6841 65.0159 52.1203 65.4186 51.3291L75.1606 32.1933C75.864 30.8115 77.5357 30.2276 78.9361 30.8746L98.36 39.849C99.1604 40.2188 100.09 40.1976 100.879 39.7915L119.866 30.0212C121.242 29.3129 122.924 29.8144 123.671 31.1555L134.06 49.8164C134.485 50.581 135.241 51.1052 136.11 51.2382L157.46 54.508C158.989 54.7421 160.044 56.1468 159.844 57.6802L157.074 78.8631C156.959 79.7416 157.258 80.6202 157.884 81.2425L172.891 96.1684C173.98 97.2518 174.005 99.0087 172.948 100.141L158.342 115.783C157.736 116.431 157.462 117.32 157.6 118.191L160.944 139.325C161.185 140.849 160.167 142.298 158.646 142.599L137.562 146.762C136.691 146.934 135.946 147.498 135.543 148.289L125.793 167.441C125.089 168.823 123.418 169.407 122.017 168.76L102.593 159.786C101.793 159.416 100.863 159.437 100.074 159.843L81.0449 169.636C79.6675 170.344 77.9839 169.841 77.2383 168.498L66.8812 149.842C66.4559 149.076 65.6993 148.55 64.8296 148.417L43.7537 145.189C42.2318 144.956 41.1776 143.562 41.368 142.034L44.004 120.876C44.1127 120.003 43.8133 119.132 43.192 118.514L28.0627 103.466C26.9735 102.383 26.9482 100.626 28.0055 99.4938L42.6365 83.8253C43.2422 83.1767 43.516 82.2878 43.3782 81.417L40.036 60.2899C39.7949 58.7662 40.8121 57.3168 42.3333 57.0164L63.3993 52.8561Z" fill="#9D1A1A"/>
</g>
<defs>
<filter id="filter0_d_126_3859" x="23.229" y="29.7012" width="154.496" height="148.256" filterUnits="userSpaceOnUse" color-interpolation-filters="sRGB">
<feFlood flood-opacity="0" result="BackgroundImageFix"/>
<feColorMatrix in="SourceAlpha" type="matrix" values="0 0 0 0 0 0 0 0 0 0 0 0 0 0 0 0 0 0 127 0" result="hardAlpha"/>
<feOffset dy="4"/>
<feGaussianBlur stdDeviation="2"/>
<feComposite in2="hardAlpha" operator="out"/>
<feColorMatrix type="matrix" values="0 0 0 0 0 0 0 0 0 0 0 0 0 0 0 0 0 0 0.25 0"/>
<feBlend mode="normal" in2="BackgroundImageFix" result="effect1_dropShadow_126_3859"/>
<feBlend mode="normal" in="SourceGraphic" in2="effect1_dropShadow_126_3859" result="shape"/>
</filter>
</defs>
</svg>