<svg width="238" height="238" viewBox="0 0 238 238" fill="none" xmlns="http://www.w3.org/2000/svg">
<circle cx="119" cy="119" r="119" fill="#703A31"/>
<path d="M188.95 105.169L188.943 105.162L125.433 41.8868C125.432 41.8857 125.431 41.8846 125.43 41.8836C121.58 38.0377 115.416 38.0388 111.567 41.8868L48.0499 105.385C46.3683 107.066 45 109.373 45 112.426V173.126C45 178.593 49.4105 183 54.8756 183H93.8469C100.389 183 105.66 177.732 105.66 171.188V136.318C105.66 136.316 105.661 136.314 105.661 136.313C105.661 136.312 105.662 136.31 105.663 136.306C105.664 136.303 105.667 136.298 105.669 136.294C105.67 136.293 105.67 136.293 105.671 136.292C105.676 136.292 105.682 136.291 105.689 136.291H130.694V171.404C130.694 177.732 135.966 183 142.292 183H181.694C187.374 183 192 178.378 192 172.695V112.426C192 109.708 190.901 107.119 188.95 105.169Z" stroke="#FFA800" stroke-width="12"/>
</svg>
