<svg width="99" height="104" viewBox="0 0 99 104" fill="none" xmlns="http://www.w3.org/2000/svg">
<path d="M4 28.3204C6.20698 37.2443 11.5805 54.0366 25.6859 70.3489C41.6145 88.9645 60.1338 96.8325 68.9618 99.9991C71.4566 99.9991 75.103 99.7115 79.133 98.0802C87.865 94.4338 91.8951 87.045 92.9506 84.7423C92.2788 82.4391 90.9356 78.9849 88.0571 75.5306C83.6429 70.0613 78.1735 67.8542 75.6788 66.9907C72.5121 68.43 67.4265 72.46 65.5076 75.2425C53.2252 71.2124 31.4432 48.6628 27.797 34.6535C30.4837 32.6384 33.1705 30.6234 35.8572 28.6083C35.8572 26.7851 35.3774 21.3157 31.2513 16.2301C27.797 12.008 23.5749 10.2808 21.7518 9.70508C15.8025 11.0485 4.95954 22.5631 4 28.4164V28.3204Z" stroke="white" stroke-width="7" stroke-linecap="round" stroke-linejoin="round"/>
<path d="M48.9668 25.1074L63.7117 32.1112C66.0285 33.2117 67.8338 35.1603 68.7546 37.5542L74.203 51.7202" stroke="white" stroke-width="7"/>
<path d="M53.5547 4L80.4104 17.0209C82.6182 18.0914 84.3554 19.9362 85.2914 22.2042L95.768 47.5898" stroke="white" stroke-width="7"/>
</svg>
