<svg width="781" height="51" viewBox="0 0 781 51" fill="none" xmlns="http://www.w3.org/2000/svg">
<rect x="159.242" width="35.4247" height="35.4247" transform="rotate(45 159.242 0)" fill="#703A31"/>
<rect x="491.145" width="35.4247" height="35.4247" transform="rotate(45 491.145 0)" fill="#703A31"/>
<rect x="25.0488" width="35.4247" height="35.4247" transform="rotate(45 25.0488 0)" fill="#703A31"/>
<rect x="356.953" width="35.4247" height="35.4247" transform="rotate(45 356.953 0)" fill="#703A31"/>
<rect x="226.338" width="35.4247" height="35.4247" transform="rotate(45 226.338 0)" fill="#703A31"/>
<rect x="558.24" width="35.4247" height="35.4247" transform="rotate(45 558.24 0)" fill="#703A31"/>
<rect x="688.855" width="35.4247" height="35.4247" transform="rotate(45 688.855 0)" fill="#703A31"/>
<rect x="92.1465" width="35.4247" height="35.4247" transform="rotate(45 92.1465 0)" fill="#703A31"/>
<rect x="424.049" width="35.4247" height="35.4247" transform="rotate(45 424.049 0)" fill="#703A31"/>
<rect x="293.436" width="35.4247" height="35.4247" transform="rotate(45 293.436 0)" fill="#703A31"/>
<rect x="625.338" width="35.4247" height="35.4247" transform="rotate(45 625.338 0)" fill="#703A31"/>
<rect x="755.951" width="35.4247" height="35.4247" transform="rotate(45 755.951 0)" fill="#703A31"/>
</svg>
