<svg width="84" height="93" viewBox="0 0 84 93" fill="none" xmlns="http://www.w3.org/2000/svg">
<path d="M38.3062 58.1312C38.4182 59.6992 39.7622 60.8193 41.3303 60.8193C41.4423 60.8193 41.5543 60.8193 41.6663 60.8193C43.3463 60.5953 44.4664 59.1392 44.3544 57.5712L43.0103 44.2427C42.7863 42.5626 41.3303 41.4426 39.7622 41.5546C38.0821 41.7786 36.9621 43.2346 37.0741 44.8027L38.3062 58.1312Z" fill="white"/>
<path d="M57.0103 60.8193C57.1223 60.8193 57.2343 60.8193 57.3463 60.8193C58.9144 60.8193 60.1464 59.6992 60.3704 58.1312L61.6025 44.8027C61.8265 43.1226 60.5945 41.6666 58.9144 41.5546C57.2343 41.4426 55.7783 42.5626 55.6663 44.2427L54.3222 57.5712C54.0982 59.1392 55.3303 60.5953 57.0103 60.8193Z" fill="white"/>
<path d="M33.8247 73.8105C28.6725 73.8105 24.5283 77.9547 24.5283 83.1069C24.5283 88.2591 28.6725 92.4032 33.8247 92.4032C38.9769 92.4032 43.121 88.2591 43.121 83.1069C43.121 77.9547 38.9769 73.8105 33.8247 73.8105ZM33.8247 86.355C32.0326 86.355 30.5765 84.8989 30.5765 83.1069C30.5765 81.3148 32.0326 79.8588 33.8247 79.8588C35.6167 79.8588 37.0728 81.3148 37.0728 83.1069C37.0728 84.7869 35.6167 86.355 33.8247 86.355Z" fill="white"/>
<path d="M64.7377 73.8105C59.5856 73.8105 55.4414 77.9547 55.4414 83.1069C55.4414 88.2591 59.5856 92.4032 64.7377 92.4032C69.8899 92.4032 74.0341 88.2591 74.0341 83.1069C73.9221 77.9547 69.7779 73.8105 64.7377 73.8105ZM64.7377 86.355C62.9457 86.355 61.4896 84.8989 61.4896 83.1069C61.4896 81.3148 62.9457 79.8588 64.7377 79.8588C66.5298 79.8588 67.9859 81.3148 67.9859 83.1069C67.9859 84.7869 66.5298 86.355 64.7377 86.355Z" fill="white"/>
<path d="M82.547 31.4729C81.987 30.6889 81.091 30.3529 80.1949 30.3529H20.6088L18.1447 20.7206C17.8087 19.3765 16.5766 18.4805 15.2326 18.4805H3.02411C1.34405 18.4805 0 19.8245 0 21.5046C0 23.1846 1.34405 24.5287 3.02411 24.5287H12.9925L15.4566 34.049V34.161L24.6409 69.6663C24.9769 71.0104 26.209 71.9064 27.553 71.9064H70.8986C72.2426 71.9064 73.4747 71.0104 73.8107 69.6663L83.107 34.049C83.331 33.153 83.107 32.257 82.547 31.4729ZM68.6585 65.9702H29.9051L22.1768 36.4011H76.3868L68.6585 65.9702Z" fill="white"/>
<path d="M37.5208 21.0553C38.0809 21.6153 38.8649 21.9513 39.6489 21.9513C40.4329 21.9513 41.217 21.6153 41.777 21.0553C42.897 19.9353 42.897 18.0312 41.777 16.7992L32.3686 7.39081C31.2486 6.27077 29.3445 6.27077 28.1125 7.39081C26.9925 8.51085 26.9925 10.4149 28.1125 11.647L37.5208 21.0553Z" fill="white"/>
<path d="M58.9144 21.9513C59.6984 21.9513 60.4825 21.6153 61.0425 21.0553L70.4508 11.647C71.5709 10.5269 71.5709 8.62286 70.4508 7.39081C69.3308 6.27077 67.4267 6.27077 66.1947 7.39081L56.7863 16.7992C55.6663 17.9192 55.6663 19.8233 56.7863 21.0553C57.3463 21.6153 58.1304 21.9513 58.9144 21.9513Z" fill="white"/>
<path d="M49.2809 19.2647C50.961 19.2647 52.3051 17.9207 52.3051 16.2406V2.91211C52.3051 1.34405 50.961 0 49.2809 0C47.6009 0 46.2568 1.34405 46.2568 3.02411V16.3526C46.2568 17.9207 47.6009 19.2647 49.2809 19.2647Z" fill="white"/>
</svg>
