<svg width="208" height="199" viewBox="0 0 208 199" fill="none" xmlns="http://www.w3.org/2000/svg">
<path fill-rule="evenodd" clip-rule="evenodd" d="M51.7528 32.8278C52.9859 32.5843 54.0414 31.7862 54.6116 30.6661L68.403 3.57603C69.3989 1.61984 71.7655 0.793254 73.7479 1.70919L101.246 14.4141C102.379 14.9376 103.695 14.9075 104.812 14.3326L131.691 0.500989C133.639 -0.501644 136.02 0.208258 137.077 2.10682L151.785 28.5247C152.388 29.6071 153.458 30.3491 154.687 30.5375L184.913 35.1664C187.077 35.4978 188.571 37.4864 188.287 39.6573L184.366 69.6453C184.204 70.889 184.627 72.1329 185.513 73.0137L206.757 94.1441C208.299 95.6778 208.335 98.165 206.838 99.7679L186.161 121.912C185.303 122.83 184.916 124.088 185.111 125.321L189.844 155.24C190.185 157.397 188.745 159.449 186.592 159.874L156.744 165.769C155.511 166.012 154.455 166.811 153.885 167.931L140.082 195.044C139.086 197 136.72 197.826 134.737 196.91L107.239 184.205C106.106 183.682 104.79 183.712 103.673 184.287L76.7334 198.15C74.7834 199.153 72.4 198.441 71.3444 196.54L56.6821 170.128C56.08 169.044 55.0089 168.3 53.7777 168.111L23.9411 163.542C21.7865 163.212 20.2942 161.238 20.5636 159.075L24.2954 129.122C24.4494 127.886 24.0255 126.653 23.1459 125.778L1.72773 104.475C0.185746 102.942 0.149907 100.455 1.64669 98.8517L22.3595 76.6703C23.217 75.752 23.6045 74.4937 23.4095 73.2609L18.678 43.3517C18.3367 41.1947 19.7768 39.1428 21.9303 38.7175L51.7528 32.8278Z" fill="#9D1A1A"/>
</svg>
